<svg xmlns="http://www.w3.org/2000/svg" viewBox="0 0 28.96 21.64"><title>ico-svg-2</title><path d="M29.45,15.72a2.55,2.55,0,0,0-4.68.08L16,12.48a3.3,3.3,0,0,0-2.85-4l.06-3.36a2.55,2.55,0,1,0-.76,0l-.06,3.38A3.31,3.31,0,0,0,9.74,13.1a3.25,3.25,0,0,0,.17.32L5,17.26a2.55,2.55,0,1,0,.55.78l-.09-.17L10.37,14a3.31,3.31,0,0,0,5.36-.83l8.85,3.34a2.55,2.55,0,1,0,4.87-.82ZM13.81,14.06a2.55,2.55,0,1,1,1.28-3.38A2.56,2.56,0,0,1,13.81,14.06Z" transform="translate(-0.71 0)" style="fill:#ffc400;fill-rule:evenodd"/></svg>