<svg xmlns="http://www.w3.org/2000/svg" viewBox="0 0 86.55 44.66"><title>ico-svg-logo</title><path d="M33.48,6.18a4.07,4.07,0,0,1-.77,2.17,15,15,0,0,1-2,2.4A28.39,28.39,0,0,1,28,13.11q-1.49,1.15-2.93,2.06-1.2.75-2.31,1.37l-2.07,1.17q-1,.55-1.76,1a11.38,11.38,0,0,0-1.38,1q1.46.27,2.6.52a7.72,7.72,0,0,1,1.81.6,4.66,4.66,0,0,1,1,1,14.34,14.34,0,0,1,1.58,2.69,2.94,2.94,0,0,1,.25.7,4.54,4.54,0,0,1-.46,1.89,9.22,9.22,0,0,1-1.26,2,13.58,13.58,0,0,1-1.91,1.9,16.6,16.6,0,0,1-2.42,1.66A17.5,17.5,0,0,1,16,34a13.07,13.07,0,0,1-3,.68q-.67-.55-1.3-1.17t-1.14-1.16q-.51-.54-.85-.94l-.43-.5A24.22,24.22,0,0,1,7.81,33a12.14,12.14,0,0,1-1.49,1.58,6.23,6.23,0,0,1-1.49,1,3.13,3.13,0,0,1-1.47.29,1.32,1.32,0,0,1-.63-.23,3.56,3.56,0,0,1-.63-.54,6.54,6.54,0,0,1-.58-.71c-.18-.26-.35-.51-.49-.74A5.27,5.27,0,0,1,.69,33a1.36,1.36,0,0,1-.12-.42,14.74,14.74,0,0,1,.91-4.76,33.93,33.93,0,0,1,2.47-5.43,48.36,48.36,0,0,1,3.7-5.62,56.67,56.67,0,0,1,4.6-5.34q.81-2.93,1.32-5.7A31.54,31.54,0,0,0,14.11.63,12.53,12.53,0,0,1,16.27,2a12.13,12.13,0,0,1,1.28,1.21,4.91,4.91,0,0,1,.77,1.2,3.41,3.41,0,0,1,.12,1c0,.08,0,.17,0,.25s0,.18,0,.27a30.55,30.55,0,0,1,5.66-3.24,13.67,13.67,0,0,1,5.4-1.21,1.56,1.56,0,0,1,.75.24,4.74,4.74,0,0,1,.87.65c.29.27.58.57.87.9a8.77,8.77,0,0,1,.77,1,6.56,6.56,0,0,1,.54,1A2.17,2.17,0,0,1,33.48,6.18ZM3.43,32c.12,0,.3-.15.54-.46a11.85,11.85,0,0,0,.83-1.28q.48-.82,1.06-2t1.21-2.58q.63-1.41,1.29-3t1.31-3.38q-1.2,1.52-2.26,3.08t-1.9,3.1a28.06,28.06,0,0,0-1.44,3.06,17.15,17.15,0,0,0-.89,2.94.54.54,0,0,0,0,.42A.26.26,0,0,0,3.43,32ZM14.21,20.83q-1.08,2.77-2.31,5.36a41.89,41.89,0,0,1-2.57,4.69,29.63,29.63,0,0,0,4.31-.68,17.19,17.19,0,0,0,3.6-1.27,11.21,11.21,0,0,0,2.82-2,9.68,9.68,0,0,0,2-2.73,7.3,7.3,0,0,0-.88-.41,10.51,10.51,0,0,0-1-.33q-.53-.14-1.07-.25L18,23q-1.18-.2-2.44-.33c-.19,0-.41-.23-.66-.61A10.93,10.93,0,0,1,14.21,20.83Zm3.17-9.66q-.35,1.26-.76,2.63t-.91,2.84a40.08,40.08,0,0,1,3.94-2.81q2.1-1.32,4.18-2.69a43,43,0,0,0,3.93-2.93,16.85,16.85,0,0,0,3.17-3.53A.34.34,0,0,0,31,4.43a.64.64,0,0,0-.09-.27.74.74,0,0,0-.21-.22.54.54,0,0,0-.31-.09,7.77,7.77,0,0,0-2.62.54,20.91,20.91,0,0,0-3.16,1.51,37.45,37.45,0,0,0-3.53,2.32Q19.24,9.56,17.39,11.17Z" transform="translate(-0.57 -0.63)" style="fill:#fff"/><path d="M30.81,30.31q0,.61.45.61a2.14,2.14,0,0,0,1.24-.74,14.45,14.45,0,0,0,1.61-1.88,3,3,0,0,1-.05-.4c0-.11,0-.22,0-.31a6,6,0,0,1,.09-1,4.34,4.34,0,0,1,.46-1.27,7.56,7.56,0,0,1,.59-1.08q.28-.47.69-1a8.3,8.3,0,0,1,.89-1l.12-.12.54.66.67.85c.22.29.42.56.59.8A3.68,3.68,0,0,1,39,25a5.15,5.15,0,0,1-.31,1.75,9.36,9.36,0,0,1-.85,1.73,5.74,5.74,0,0,0,2.27-.62,8.32,8.32,0,0,0,2.19-1.76l.48.5c.2.21.36.39.48.54a12,12,0,0,1-1.68,1.48,8.43,8.43,0,0,1-1.65.94,7.87,7.87,0,0,1-1.68.5,9.94,9.94,0,0,1-1.75.15A12.92,12.92,0,0,1,35,31.51a12.37,12.37,0,0,1-1.62,1.06,8.72,8.72,0,0,1-1.64.69,5.39,5.39,0,0,1-1.55.24A2.57,2.57,0,0,1,29,33.13a5.28,5.28,0,0,1-1.18-.91,5.53,5.53,0,0,1-.87-1.15A2.25,2.25,0,0,1,26.56,30,11.55,11.55,0,0,1,27,26.93a9.77,9.77,0,0,1,1.3-2.86,9.4,9.4,0,0,1,2.26-2.35,9.93,9.93,0,0,1,3.26-1.55.54.54,0,0,1,.21-.06l.25,0a1.07,1.07,0,0,1,.6.21,4.31,4.31,0,0,1,.59.48,4,4,0,0,1,.46.52.87.87,0,0,1,.18.34.72.72,0,0,1-.3.25,5.77,5.77,0,0,0-.71.52,10,10,0,0,0-1.06,1,15.34,15.34,0,0,0-1.34,1.8,11.11,11.11,0,0,0-1.49,3A8,8,0,0,0,30.81,30.31Z" transform="translate(-0.57 -0.63)" style="fill:#fff"/><path d="M47.78,22.56l-.49,1.32q-.24.67-.49,1.38Q48.08,23.8,49,22.87t1.57-1.45a5.76,5.76,0,0,1,1-.72,1.57,1.57,0,0,1,.62-.19,2,2,0,0,1,.79.27,7.89,7.89,0,0,1,1.07.65,7,7,0,0,1,.94.79,1.12,1.12,0,0,1,.4.71.88.88,0,0,1,0,.15l-.06.23q-.16.51-.42,1.2l-.54,1.43-.57,1.48q-.28.74-.51,1.39c-.15.43-.27.81-.37,1.14a2.92,2.92,0,0,0-.14.71.11.11,0,0,0,.12.12,1.54,1.54,0,0,0,.67-.26,12.32,12.32,0,0,0,1-.69c.39-.29.79-.6,1.21-.94s.82-.67,1.21-1l1-.9.71-.61a5.48,5.48,0,0,1,.45.47l.47.53L58.6,28.47q-.67.64-1.46,1.31t-1.63,1.34q-.84.67-1.64,1.2a11.62,11.62,0,0,1-1.49.85,2.85,2.85,0,0,1-1.16.33,2,2,0,0,1-.77-.21,5.38,5.38,0,0,1-.9-.53,3.61,3.61,0,0,1-.74-.7,1.22,1.22,0,0,1-.31-.75q.18-.83.5-1.89t.68-2.17q.37-1.11.76-2.2t.76-2l0,0q-.39.47-1.11,1.23a25.33,25.33,0,0,0-1.64,2,30.79,30.79,0,0,0-3.92,6.84,3.37,3.37,0,0,1-.22.45.42.42,0,0,1-.39.16,2,2,0,0,1-.78-.19,5.55,5.55,0,0,1-.89-.51c-.3-.21-.61-.44-.92-.7a10.09,10.09,0,0,1-.82-.77,5.73,5.73,0,0,1,.11-.69q.11-.57.31-1.43t.51-2q.31-1.11.69-2.33t.84-2.49q.46-1.27,1-2.45.86.41,1.9,1A11.18,11.18,0,0,1,47.78,22.56Z" transform="translate(-0.57 -0.63)" style="fill:#fff"/><path d="M70.92,30.12c0,.34.11.51.32.51a2.33,2.33,0,0,0,.93-.24,7.8,7.8,0,0,0,1.13-.64q.59-.4,1.2-.89t1.15-1q.54-.47,1-.87l.67-.65.49.47.51.53-1.2,1.18q-.67.65-1.43,1.33t-1.59,1.32a17.74,17.74,0,0,1-1.64,1.14,10.18,10.18,0,0,1-1.59.8,4,4,0,0,1-1.46.31,1.77,1.77,0,0,1-.89-.34,5.94,5.94,0,0,1-1-.82,5.7,5.7,0,0,1-.82-1,1.87,1.87,0,0,1-.34-1,16.27,16.27,0,0,1,.12-2q-.91.81-1.77,1.55t-1.72,1.37a21.15,21.15,0,0,1-1.77,1.18,12.32,12.32,0,0,1-1.92.93,1.46,1.46,0,0,1-.53.12,1.11,1.11,0,0,1-.53-.2,3.39,3.39,0,0,1-.63-.52,3.45,3.45,0,0,1-.53-.71,1.56,1.56,0,0,1-.22-.76,6.38,6.38,0,0,1,.32-1.86A11.17,11.17,0,0,1,58,27.33a16.07,16.07,0,0,1,3.43-4.23,16,16,0,0,1,2.42-1.75,13.29,13.29,0,0,1,2.83-1.25,2.71,2.71,0,0,1,.73.25c.3.14.58.29.83.44Q69,18.69,70,16.59t2-4Q73,10.6,74.2,8.9a30.42,30.42,0,0,1,2.32-3,14.17,14.17,0,0,1,2.29-2.13,5.35,5.35,0,0,1,2.15-1,1.88,1.88,0,0,1,.95.29,5.6,5.6,0,0,1,.95.71,5.72,5.72,0,0,1,.76.87,2.55,2.55,0,0,1,.4.75,6.33,6.33,0,0,1-.47,2.18,18.51,18.51,0,0,1-1.29,2.67,34.5,34.5,0,0,1-2,3q-1.13,1.57-2.43,3.18t-2.74,3.22q-1.43,1.61-2.88,3.11a40.5,40.5,0,0,0-1,4A18.48,18.48,0,0,0,70.92,30.12Zm-9.09-.69a4.09,4.09,0,0,0,2-.95,28.88,28.88,0,0,0,3-2.53q.18-.94.45-1.9t.59-2a20.68,20.68,0,0,0-2.31,1.81,24.25,24.25,0,0,0-2,2,14.33,14.33,0,0,0-1.41,1.86,2.86,2.86,0,0,0-.54,1.31C61.59,29.32,61.67,29.43,61.83,29.43Zm19.3-24.2a1.36,1.36,0,0,0-.85.51,10.66,10.66,0,0,0-1.12,1.41q-.62.91-1.31,2.15T76.46,12q-.71,1.46-1.43,3.11t-1.34,3.34q1.53-1.87,2.9-3.75T79,11.13A25.2,25.2,0,0,0,80.65,8a6.13,6.13,0,0,0,.61-2.32c0-.08,0-.18,0-.31S81.2,5.23,81.13,5.23Z" transform="translate(-0.57 -0.63)" style="fill:#fff"/><path d="M78.61,33.5a2,2,0,0,1-.77-.21,5,5,0,0,1-.9-.53,3.85,3.85,0,0,1-.73-.7,1.22,1.22,0,0,1-.31-.75q.21-.9.55-2.05t.74-2.36q.4-1.2.84-2.35t.79-2q.36-.89.62-1.44c.18-.37.29-.55.35-.55a2.05,2.05,0,0,1,.61.27,10.68,10.68,0,0,1,1,.64,7.56,7.56,0,0,1,1,.79,1.14,1.14,0,0,1,.43.72.87.87,0,0,1,0,.15l-.06.23q-.16.51-.42,1.2l-.54,1.43-.57,1.48q-.28.74-.51,1.39c-.15.43-.27.81-.37,1.14a2.92,2.92,0,0,0-.14.71.11.11,0,0,0,.12.12,1.54,1.54,0,0,0,.67-.26c.3-.18.64-.41,1-.69s.79-.6,1.21-.94.82-.67,1.21-1l1-.9.71-.61.44.47.48.53L86,28.47q-.67.64-1.46,1.31t-1.63,1.34q-.84.67-1.64,1.2a11.75,11.75,0,0,1-1.49.85A2.88,2.88,0,0,1,78.61,33.5Zm8.05-19.2a3.58,3.58,0,0,1-.15.4l-.31.73q-.18.42-.42.87c-.15.31-.31.59-.46.84a5.38,5.38,0,0,1-.43.64c-.13.17-.24.25-.32.25a2.93,2.93,0,0,1-.88-.22,9.28,9.28,0,0,1-1-.46,6.91,6.91,0,0,1-.81-.5c-.22-.16-.34-.28-.34-.35a3.49,3.49,0,0,1,.24-1.11,11.23,11.23,0,0,1,.57-1.32A8.61,8.61,0,0,1,83,13c.22-.31.4-.47.52-.47a2.31,2.31,0,0,1,.89.23,8.76,8.76,0,0,1,1,.54,7.27,7.27,0,0,1,.86.6C86.55,14.08,86.67,14.22,86.67,14.3Z" transform="translate(-0.57 -0.63)" style="fill:#fff"/><path d="M14.14,40H12.22v5.31H11.15V40H9.25v-.87h4.9Z" transform="translate(-0.57 -0.63)" style="fill:#00c7c0"/><path d="M30.4,45.29H29.33V42.55H26.57v2.74H25.5V39.12h1.07v2.57h2.76V39.12H30.4Z" transform="translate(-0.57 -0.63)" style="fill:#00c7c0"/><path d="M46,42.53H43.48v1.89h3v.87h-4V39.12h4V40H43.48v1.7H46Z" transform="translate(-0.57 -0.63)" style="fill:#00c7c0"/><path d="M60.31,39.12l1.78,4.73,1.78-4.73h1.39v6.18H64.19v-2l.11-2.72-1.82,4.76H61.7l-1.82-4.75L60,43.26v2H58.92V39.12Z" transform="translate(-0.57 -0.63)" style="fill:#00c7c0"/><path d="M79.16,42.53H76.62v1.89h3v.87h-4V39.12h4V40H76.62v1.7h2.54Z" transform="translate(-0.57 -0.63)" style="fill:#00c7c0"/></svg>