<svg xmlns="http://www.w3.org/2000/svg" viewBox="0 0 17.87 17.81"><title>ico-google_plus</title><path d="M11.37,0H6.1c-2.67,0-4.9,2-4.9,4.13a3.78,3.78,0,0,0,4,4l.51,0a2.22,2.22,0,0,0-.28,1,1.84,1.84,0,0,0,.76,1.37h-1C2.14,10.47,0,12.57,0,14.59s2.58,3.23,5.65,3.23c3.49,0,5.64-2,5.64-4,0-1.59-.34-2.39-2-3.66-.49-.37-1.55-1.12-1.55-1.62S7.85,7.7,8.74,7A3.58,3.58,0,0,0,10.3,4.2a3.31,3.31,0,0,0-1.5-3h1.38ZM9.58,13.51a2.43,2.43,0,0,1,.07.57c0,1.6-1,2.86-4,2.86C3.52,16.94,2,15.6,2,14s1.79-2.93,3.91-2.9a4.64,4.64,0,0,1,1.37.22C8.42,12.11,9.35,12.61,9.58,13.51ZM6.19,7.29a3.44,3.44,0,0,1-3-3.2C2.93,2.23,3.88.81,5.3.85S7.94,2.42,8.18,4.28,7.61,7.33,6.19,7.29Zm9.25-4.63V.24H14.22V2.66H11.79V3.87h2.43V6.3h1.22V3.87h2.43V2.66Z" transform="translate(0 0)" style="fill:#fff;fill-rule:evenodd"/></svg>