<svg xmlns="http://www.w3.org/2000/svg" viewBox="0 0 19.71 29.88"><title>ico-svg-5</title><path d="M18.67,16.55a7.06,7.06,0,0,0-3-2.88,6.62,6.62,0,0,0,2-2.51,7.18,7.18,0,0,0,.66-3A8,8,0,0,0,17.7,5a7.17,7.17,0,0,0-1.79-2.51A8.25,8.25,0,0,0,13.12.81,10.71,10.71,0,0,0,9.48.22,9.86,9.86,0,0,0,6.12.79,8.14,8.14,0,0,0,3.34,2.47a9,9,0,0,0-2,2.75A11.55,11.55,0,0,0,.31,9H5.74q.47-4.31,3.82-4.31A3.37,3.37,0,0,1,12,5.56a3.42,3.42,0,0,1,.87,2.53q0,3.81-4.2,3.81H7v4.45H9.27A5.44,5.44,0,0,1,13,17.48a4.25,4.25,0,0,1,1.27,3.33A5.82,5.82,0,0,1,14,22.75a4.33,4.33,0,0,1-.9,1.52,4.15,4.15,0,0,1-1.41,1,4.57,4.57,0,0,1-1.84.36A4.17,4.17,0,0,1,8,25.24a4,4,0,0,1-1.36-1.06,4.61,4.61,0,0,1-.84-1.57,6.25,6.25,0,0,1-.28-1.89H0a11.12,11.12,0,0,0,.87,3.85A8.85,8.85,0,0,0,6,29.42a10.71,10.71,0,0,0,3.86.67,10.91,10.91,0,0,0,3.89-.68,9.52,9.52,0,0,0,3.14-1.92,8.9,8.9,0,0,0,2.1-3,9.24,9.24,0,0,0,.76-3.79A8.46,8.46,0,0,0,18.67,16.55Z" transform="translate(0 -0.22)" style="fill:#eff7fa;fill-rule:evenodd"/></svg>