<svg xmlns="http://www.w3.org/2000/svg" viewBox="0 0 20.23 30"><title>ico-svg-4</title><path d="M7.41,24.94A19.79,19.79,0,0,1,9,23.38q1.06-1,2.54-2.22,2.49-2.09,4.21-3.75a22.19,22.19,0,0,0,2.58-2.86,9.91,9.91,0,0,0,1.37-2.74,10.32,10.32,0,0,0,.46-3.14,9.11,9.11,0,0,0-.64-3.43A7.8,7.8,0,0,0,17.66,2.5a8.62,8.62,0,0,0-3-1.83A11.65,11.65,0,0,0,10.57,0,10.49,10.49,0,0,0,6.68.7a9,9,0,0,0-3.06,2A9.68,9.68,0,0,0,1.54,5.75a12.62,12.62,0,0,0-1,4H6.13A7.46,7.46,0,0,1,6.6,7.51a5.53,5.53,0,0,1,1-1.64,3.75,3.75,0,0,1,1.33-1,4,4,0,0,1,1.59-.33,4.17,4.17,0,0,1,3.07,1.06,4,4,0,0,1,1.08,3,6.83,6.83,0,0,1-.35,2.23,7.16,7.16,0,0,1-1.16,2.06A17.83,17.83,0,0,1,11,15.13Q9.63,16.32,7.68,17.9,5.49,19.67,4,21.12a17,17,0,0,0-2.29,2.65A11,11,0,0,0,0,30H20.23V24.94Z" style="fill:#eff7fa;fill-rule:evenodd"/></svg>