<svg xmlns="http://www.w3.org/2000/svg" viewBox="0 0 17.88 17.81"><title>ico-dribbble</title><path d="M17.7,7.12a8.61,8.61,0,0,0-.52-1.67,8.73,8.73,0,0,0-.82-1.51,9.07,9.07,0,0,0-2.41-2.41A8.84,8.84,0,0,0,10.74.18a9,9,0,0,0-3.6,0A9.23,9.23,0,0,0,5.46.7a9.28,9.28,0,0,0-1.52.82A9.39,9.39,0,0,0,2.62,2.61,8.87,8.87,0,0,0,0,8.91a8.82,8.82,0,0,0,1.53,5,9,9,0,0,0,3.93,3.22,8.89,8.89,0,0,0,1.68.52,9,9,0,0,0,3.6,0,8.81,8.81,0,0,0,1.68-.52,8.93,8.93,0,0,0,1.52-.82,8.55,8.55,0,0,0,1.32-1.08,9.16,9.16,0,0,0,1.09-1.32,9,9,0,0,0,.82-1.51,8.74,8.74,0,0,0,.52-1.67,8.85,8.85,0,0,0,0-3.59ZM8.94,1.3a7.61,7.61,0,0,1,5,1.9A8.3,8.3,0,0,1,10,6,38.93,38.93,0,0,0,7.14,1.52,7.66,7.66,0,0,1,8.94,1.3Zm-1.83.22h0ZM5.68,2A45.11,45.11,0,0,1,8.52,6.41a28.17,28.17,0,0,1-7,.93A7.62,7.62,0,0,1,5.68,2ZM3.26,14a7.56,7.56,0,0,1-2-5.08c0-.08,0-.16,0-.24A28.06,28.06,0,0,0,9.15,7.58c.22.43.43.86.62,1.29L9.47,9A12.09,12.09,0,0,0,3.26,14Zm5.68,2.53a7.6,7.6,0,0,1-4.69-1.62,10.33,10.33,0,0,1,6-4.74l.05,0a31.42,31.42,0,0,1,1.63,5.78A7.57,7.57,0,0,1,8.94,16.51Zm4.26-1.3a32.72,32.72,0,0,0-1.48-5.43,11.07,11.07,0,0,1,4.76.33A7.59,7.59,0,0,1,13.21,15.21ZM11.26,8.58l-.17-.39c-.16-.37-.33-.74-.51-1.1a9.81,9.81,0,0,0,4.25-3,7.55,7.55,0,0,1,1.74,4.75A17.8,17.8,0,0,0,11.26,8.58Z" style="fill:#fff;fill-rule:evenodd"/></svg>