<svg xmlns="http://www.w3.org/2000/svg" viewBox="0 0 118.1 43.81"><title>ico-svg-star</title><path d="M17.82,11.49a1.8,1.8,0,0,0-1,.25.84.84,0,0,0-.39.76.88.88,0,0,0,.39.78,5.86,5.86,0,0,0,1.66.58,4.51,4.51,0,0,1,1.91.87A2.07,2.07,0,0,1,21,16.38a2.2,2.2,0,0,1-.81,1.77,3.22,3.22,0,0,1-2.13.68,5,5,0,0,1-3.43-1.35l.87-1.06a3.91,3.91,0,0,0,2.59,1.1,1.75,1.75,0,0,0,1.07-.29.92.92,0,0,0,.4-.78.88.88,0,0,0-.37-.75,3.89,3.89,0,0,0-1.28-.49,11.27,11.27,0,0,1-1.38-.41,3.1,3.1,0,0,1-.84-.48A2,2,0,0,1,15,12.6a2.1,2.1,0,0,1,.83-1.78,3.32,3.32,0,0,1,2.06-.63,4.9,4.9,0,0,1,1.57.26,4.1,4.1,0,0,1,1.34.74L20,12.26a2.8,2.8,0,0,0-1-.55A3.74,3.74,0,0,0,17.82,11.49Z" style="fill:#a8b9c0"/><path d="M23.93,10.4h1.39v8.34H23.93Z" style="fill:#a8b9c0"/><path d="M30.18,18.73H28.79V10.4H31l2.49,5.24,2.49-5.24H38.1v8.34H36.71V12.22L33.83,18H33l-2.87-5.79Z" style="fill:#a8b9c0"/><path d="M47.13,11.12A2.78,2.78,0,0,1,48,13.37a2.67,2.67,0,0,1-.88,2.22,4.27,4.27,0,0,1-2.69.7H43v2.45H41.56V10.4h2.83A4.21,4.21,0,0,1,47.13,11.12Zm-1,3.44a1.85,1.85,0,0,0,.42-1.31A1.36,1.36,0,0,0,46,12a3,3,0,0,0-1.66-.36H43V15h1.62A2.13,2.13,0,0,0,46.14,14.56Z" style="fill:#a8b9c0"/><path d="M50.81,18.73V10.4H52.2v7H56v1.34Z" style="fill:#a8b9c0"/><path d="M64.45,10.4v1.32h-4.4v2.21h4v1.25h-4v2.23h4.54v1.32H58.66V10.4Z" style="fill:#a8b9c0"/><path d="M34.09,25.81a1.8,1.8,0,0,0-1,.25.84.84,0,0,0-.39.76.89.89,0,0,0,.39.78,5.9,5.9,0,0,0,1.66.58,4.53,4.53,0,0,1,1.91.87,2.07,2.07,0,0,1,.64,1.65,2.2,2.2,0,0,1-.81,1.77,3.22,3.22,0,0,1-2.13.68,5,5,0,0,1-3.43-1.35l.87-1.06a3.91,3.91,0,0,0,2.59,1.1,1.75,1.75,0,0,0,1.07-.29.92.92,0,0,0,.39-.78.87.87,0,0,0-.37-.75,3.9,3.9,0,0,0-1.28-.49,11.25,11.25,0,0,1-1.38-.41,3.07,3.07,0,0,1-.84-.48,2,2,0,0,1-.73-1.72,2.1,2.1,0,0,1,.83-1.78,3.32,3.32,0,0,1,2.06-.63,4.92,4.92,0,0,1,1.57.26,4.09,4.09,0,0,1,1.34.74l-.74,1.06a2.79,2.79,0,0,0-1-.55A3.74,3.74,0,0,0,34.09,25.81Z" style="fill:#a8b9c0"/><path d="M43.32,26v7H41.93V26h-2.5V24.71h6.39V26Z" style="fill:#a8b9c0"/><path d="M49,31.15,48.2,33H46.72l3.63-8.34h1.49L55.47,33H54l-.83-1.9Zm3.56-1.3-1.5-3.44-1.5,3.44Z" style="fill:#a8b9c0"/><path d="M64.37,27.42A2.42,2.42,0,0,1,62.59,30l2.16,3H63l-2-2.8H59.18V33H57.79V24.71h3.07a4.4,4.4,0,0,1,2.7.64A2.47,2.47,0,0,1,64.37,27.42ZM62.52,28.6a1.5,1.5,0,0,0,.42-1.19,1.28,1.28,0,0,0-.44-1.12A2.87,2.87,0,0,0,61,26H59.18v3h1.73A2.53,2.53,0,0,0,62.52,28.6Z" style="fill:#a8b9c0"/><path d="M0,0V43.81H118.1V0ZM74.29,42.71H1.09V1.1h73.2ZM100.14,28l-4-2.08-4,2.13.74-4.47-3.26-3.14,4.48-.68,2-4.08,2,4.05,4.49.62-3.23,3.18Z" style="fill:#a8b9c0"/></svg>