<svg xmlns="http://www.w3.org/2000/svg" viewBox="0 0 117.6 43.94"><title>ico-svg-music</title><path d="M1.53,39.34c-.84.48-1.53.07-1.53-.89V8.57c0-1,.69-1.37,1.53-.89L28,22.69a.91.91,0,0,1,0,1.73Z" style="fill:#a8b9c0"/><rect x="42.2" width="1.1" height="43.94" style="fill:#a8b9c0"/><path d="M63.81,15.52h1.45v2.94a4.47,4.47,0,0,1-3.48,1.34,4.39,4.39,0,0,1-3.19-1.25,4.25,4.25,0,0,1-1.29-3.18,4.29,4.29,0,0,1,1.31-3.2,4.37,4.37,0,0,1,3.17-1.28A4.5,4.5,0,0,1,64.87,12l-.78,1.11a3,3,0,0,0-1-.6,3.83,3.83,0,0,0-1.19-.17,3.06,3.06,0,0,0-2.19.84,2.92,2.92,0,0,0-.88,2.21,2.92,2.92,0,0,0,.86,2.2,2.89,2.89,0,0,0,2.08.83,3.71,3.71,0,0,0,2-.53Z" style="fill:#a8b9c0"/><path d="M75.26,13.9a2.5,2.5,0,0,1-1.86,2.68l2.25,3.12H73.81l-2.05-2.89H69.85v2.89H68.4v-8.6h3.2a4.64,4.64,0,0,1,2.82.66A2.54,2.54,0,0,1,75.26,13.9Zm-1.93,1.22a1.53,1.53,0,0,0,.44-1.22,1.31,1.31,0,0,0-.46-1.16,3,3,0,0,0-1.62-.31H69.85V15.5h1.81A2.66,2.66,0,0,0,73.33,15.12Z" style="fill:#a8b9c0"/><path d="M85.78,18.52a4.72,4.72,0,0,1-6.45,0A4.26,4.26,0,0,1,78,15.35a4.26,4.26,0,0,1,1.3-3.18,4.72,4.72,0,0,1,6.45,0,4.26,4.26,0,0,1,1.3,3.18A4.26,4.26,0,0,1,85.78,18.52Zm-1.06-5.38a3,3,0,0,0-4.32,0,3.21,3.21,0,0,0,0,4.42,3,3,0,0,0,4.32,0,3.21,3.21,0,0,0,0-4.42Z" style="fill:#a8b9c0"/><path d="M97.35,18.52a4.72,4.72,0,0,1-6.45,0,4.26,4.26,0,0,1-1.3-3.17,4.26,4.26,0,0,1,1.3-3.18,4.72,4.72,0,0,1,6.45,0,4.26,4.26,0,0,1,1.3,3.18A4.26,4.26,0,0,1,97.35,18.52Zm-1.06-5.38a3,3,0,0,0-4.32,0,3.21,3.21,0,0,0,0,4.42,3,3,0,0,0,4.32,0,3.21,3.21,0,0,0,0-4.42Z" style="fill:#a8b9c0"/><path d="M105.5,19.71h-1.62l-3.46-8.6H102l2.65,6.42,2.64-6.42H109Z" style="fill:#a8b9c0"/><path d="M117.46,11.11v1.37h-4.59v2.28H117V16h-4.12v2.3h4.74v1.37h-6.19v-8.6Z" style="fill:#a8b9c0"/><path d="M59.31,34.47H57.85v-8.6h2.26l2.6,5.4,2.6-5.4h2.25v8.6H66.11V27.75l-3,6H62.3l-3-6Z" style="fill:#a8b9c0"/><path d="M73.11,32.5a2.2,2.2,0,0,0,3.2,0,2.78,2.78,0,0,0,.59-1.87V25.87h1.45v4.82a3.83,3.83,0,0,1-1,2.86,3.93,3.93,0,0,1-5.24,0,3.83,3.83,0,0,1-1-2.86V25.87h1.45v4.76A2.77,2.77,0,0,0,73.11,32.5Z" style="fill:#a8b9c0"/><path d="M84.46,27a1.89,1.89,0,0,0-1,.26A.86.86,0,0,0,83,28a.91.91,0,0,0,.41.8,6.07,6.07,0,0,0,1.73.6,4.73,4.73,0,0,1,2,.9,2.12,2.12,0,0,1,.67,1.7A2.26,2.26,0,0,1,87,33.87a3.39,3.39,0,0,1-2.23.7,5.23,5.23,0,0,1-3.58-1.39l.91-1.1a4.09,4.09,0,0,0,2.71,1.13,1.85,1.85,0,0,0,1.11-.3.94.94,0,0,0,.41-.8.9.9,0,0,0-.39-.78,4,4,0,0,0-1.33-.5,12.17,12.17,0,0,1-1.44-.42,3.29,3.29,0,0,1-.87-.5,2.08,2.08,0,0,1-.76-1.77,2.16,2.16,0,0,1,.87-1.84,3.5,3.5,0,0,1,2.15-.64,5.17,5.17,0,0,1,1.64.27,4.3,4.3,0,0,1,1.4.76l-.77,1.1a2.91,2.91,0,0,0-1-.57A4,4,0,0,0,84.46,27Z" style="fill:#a8b9c0"/><path d="M90.84,25.87h1.45v8.6H90.84Z" style="fill:#a8b9c0"/><path d="M99.84,33.15a3,3,0,0,0,1.29-.25,4.46,4.46,0,0,0,1.13-.81l.93,1a4.31,4.31,0,0,1-3.32,1.51,4.45,4.45,0,0,1-3.24-1.26,4.56,4.56,0,0,1,0-6.37A4.54,4.54,0,0,1,100,25.66a4.33,4.33,0,0,1,3.34,1.48l-.92,1a4.07,4.07,0,0,0-1.16-.82,3.26,3.26,0,0,0-1.29-.23,3.05,3.05,0,0,0-2.19.84,2.84,2.84,0,0,0-.89,2.15,3,3,0,0,0,.88,2.19A2.85,2.85,0,0,0,99.84,33.15Z" style="fill:#a8b9c0"/></svg>