<svg xmlns="http://www.w3.org/2000/svg" viewBox="0 0 104.13 40.66"><title>ico-svg-lab</title><path d="M21.5,6.64a2,2,0,0,0,0-2.86,2.09,2.09,0,0,0-2.92,0,2,2,0,0,0,0,2.86A2.09,2.09,0,0,0,21.5,6.64Z" style="fill:#a8b9c0"/><path d="M15.37,5a2.87,2.87,0,0,0,0-4.11,3,3,0,0,0-4.19,0,2.87,2.87,0,0,0,0,4.11A3,3,0,0,0,15.37,5Z" style="fill:#a8b9c0"/><path d="M32.13,37,23.45,22.37a8.87,8.87,0,0,1-1-3.67V12h.92a.77.77,0,0,0,.77-.76v-.76a.77.77,0,0,0-.77-.76H9.45a.77.77,0,0,0-.77.76v.76a.77.77,0,0,0,.77.76h.68V18.7a8.9,8.9,0,0,1-1,3.67L.43,37A2.83,2.83,0,0,0,0,38.43,2.12,2.12,0,0,0,.81,40.1a2.88,2.88,0,0,0,1.78.55H30a2.87,2.87,0,0,0,1.78-.55,2.12,2.12,0,0,0,.81-1.67A2.84,2.84,0,0,0,32.13,37ZM8.51,27.91l2.61-4.39a10.81,10.81,0,0,0,1.32-4.81V12h7.68V18.7a10.89,10.89,0,0,0,1.33,4.81l2.61,4.39Z" style="fill:#a8b9c0"/><path d="M49.63,29.11V16.92h2.1V27.16H57.4v2Z" style="fill:#a8b9c0"/><path d="M72.12,26.34l-1.24,2.77H68.64l5.48-12.19h2.24l5.48,12.19H79.59l-1.25-2.77Zm5.37-1.9-2.26-5-2.26,5Z" style="fill:#a8b9c0"/><path d="M99.65,29.11H94.22V16.92h4.83a7,7,0,0,1,2.18.3,3,3,0,0,1,1.36.8,3.09,3.09,0,0,1,.85,2.13,2.49,2.49,0,0,1-.92,2.13,4,4,0,0,1-.46.31l-.44.2a3.29,3.29,0,0,1,1.84,1,2.81,2.81,0,0,1,.68,1.93,3.24,3.24,0,0,1-.89,2.25A4.73,4.73,0,0,1,99.65,29.11ZM96.31,22H99q2.27,0,2.28-1.52a1.42,1.42,0,0,0-.55-1.26A3,3,0,0,0,99,18.82H96.31Zm0,5.23H99.6a3.55,3.55,0,0,0,1.77-.36A1.43,1.43,0,0,0,102,25.5q0-1.62-2.65-1.62h-3Z" style="fill:#a8b9c0"/></svg>