<svg xmlns="http://www.w3.org/2000/svg" viewBox="0 0 30 30"><title>ico-svg-6</title><path d="M29.33,6.78,23.22.67A2.28,2.28,0,0,0,20,.67L3.93,16.74,5,17.8,21.06,1.73a.78.78,0,0,1,1.1,0l2.53,2.53L9.45,19.49l1.06,1.06L25.75,5.31l2.52,2.53a.78.78,0,0,1,0,1.1h0L12.2,25l1.06,1.06L29.33,10a2.28,2.28,0,0,0,0-3.22ZM3,20.86a1.68,1.68,0,0,0-1.16-.56,1.21,1.21,0,0,0-1,.5,1.84,1.84,0,0,0-.33,1L0,27.81H0A1.58,1.58,0,0,0,0,28a2,2,0,0,0,2,2h.18l6.08-.52a1.84,1.84,0,0,0,1-.33,1.21,1.21,0,0,0,.5-1A1.66,1.66,0,0,0,9.15,27ZM2.06,28.5H2A.46.46,0,0,1,1.5,28s0,0,0-.06h0L2,22l6,6Z" transform="translate(0 0)" style="fill:#00c6bf;fill-rule:evenodd"/></svg>