<svg xmlns="http://www.w3.org/2000/svg" viewBox="0 0 29.41 27"><title>ico-svg-8</title><path d="M28.14,8.38H21.62A8.63,8.63,0,0,0,20,4.07,4.67,4.67,0,0,0,16.5,1.86h-7A2.14,2.14,0,0,0,7.66,0H5.79A1.8,1.8,0,0,0,3.93,1.86V5.12H1.14a.48.48,0,0,0-.47.47c0,.54.11.93.47.93H3.93V12.1l-2.69.05a.65.65,0,0,0,0,1.31l2.69,0v2.79a1.8,1.8,0,0,0,1.86,1.86H7.66a2.16,2.16,0,0,0,1.86-1.4h7l-.17,0h.26v0A4.62,4.62,0,0,0,20,14.47a10.11,10.11,0,0,0,1.59-4.7h6.52c.35,0,.47.58.47.93V21.88c0,.36-.11.46-.47.47H13.71a1.8,1.8,0,0,0-1.86,1.86V27h1.4V24.39a.66.66,0,0,1,.65-.65H28.13A1.81,1.81,0,0,0,30,21.88V10.71C30,9.63,29.22,8.38,28.14,8.38ZM8.47,16.07a.66.66,0,0,1-.65.65H6a.66.66,0,0,1-.65-.65V2.12c0-.35.53-.72.89-.72h1.4a.89.89,0,0,1,.82.72Zm6.63-.71H10V3.26H15.1Zm3.83-1.6a3.38,3.38,0,0,1-2.43,1.6V3.26a3.27,3.27,0,0,1,2.43,1.52,8.36,8.36,0,0,1,1.2,4.49A8.35,8.35,0,0,1,18.93,13.76Z" transform="translate(-0.59 0)" style="fill:#00c6bf;fill-rule:evenodd"/></svg>