<svg xmlns="http://www.w3.org/2000/svg" viewBox="0 0 17.88 14.48"><title>ico-twitter</title><path d="M17.88,1.71a7.24,7.24,0,0,1-2.11.57,3.65,3.65,0,0,0,1.61-2,7.33,7.33,0,0,1-2.33.88A3.67,3.67,0,0,0,8.81,4.49,10.42,10.42,0,0,1,1.25.67,3.65,3.65,0,0,0,2.38,5.55,3.61,3.61,0,0,1,.72,5.09v0A3.66,3.66,0,0,0,3.66,8.72,3.65,3.65,0,0,1,2,8.78a3.66,3.66,0,0,0,3.43,2.54A7.38,7.38,0,0,1,.88,12.88,7.17,7.17,0,0,1,0,12.83a10.41,10.41,0,0,0,5.62,1.64A10.35,10.35,0,0,0,16.06,4.08c0-.16,0-.32,0-.47A7.4,7.4,0,0,0,17.88,1.71Z" transform="translate(0 0)" style="fill:#fff;fill-rule:evenodd"/></svg>