<svg xmlns="http://www.w3.org/2000/svg" viewBox="0 0 63.29 62.42"><title>ico-svg-montreal</title><path d="M6.34.32V40.78H8.53V2.51H55.62V40.78h2.19V.32Zm0,62.42H57.81V60.55H6.34Z" transform="translate(-0.3 -0.32)" style="fill:#a8b9c0"/><path d="M1.33,53.61H.3V47.49H1.91l1.85,3.85L5.6,47.49h1.6v6.12h-1V48.83L4,53.08H3.46L1.33,48.83Z" transform="translate(-0.3 -0.32)" style="fill:#a8b9c0"/><path d="M15.79,52.77a3.15,3.15,0,0,1-2.3.91,3.16,3.16,0,0,1-2.29-.91,3.21,3.21,0,0,1,0-4.52,3.16,3.16,0,0,1,2.3-.91,3.15,3.15,0,0,1,2.3.91,3.21,3.21,0,0,1,0,4.52ZM15,48.93a2.15,2.15,0,0,0-3.08,0,2.28,2.28,0,0,0,0,3.14,2.15,2.15,0,0,0,3.08,0,2.29,2.29,0,0,0,0-3.14Z" transform="translate(-0.3 -0.32)" style="fill:#a8b9c0"/><path d="M24.36,47.49h1v6.12H24.27l-3.47-4.47v4.47h-1V47.49h1l3.56,4.57Z" transform="translate(-0.3 -0.32)" style="fill:#a8b9c0"/><path d="M31.16,48.43v5.18h-1V48.43H28.27v-.95H33v.95Z" transform="translate(-0.3 -0.32)" style="fill:#a8b9c0"/><path d="M40.78,49.48a1.78,1.78,0,0,1-1.32,1.91l1.6,2.22H39.75l-1.46-2.06H36.93v2.06h-1V47.49h2.28a3.3,3.3,0,0,1,2,.47A1.81,1.81,0,0,1,40.78,49.48Zm-1.37.87a1.09,1.09,0,0,0,.31-.87.93.93,0,0,0-.32-.82,2.17,2.17,0,0,0-1.16-.22H36.93v2.19h1.29A1.89,1.89,0,0,0,39.41,50.34Z" transform="translate(-0.3 -0.32)" style="fill:#a8b9c0"/><path d="M48.32,47.49v1H45.06v1.62H48V51H45.06v1.64h3.37v1H44V47.49Z" transform="translate(-0.3 -0.32)" style="fill:#a8b9c0"/><path d="M52.37,52.22l-.61,1.39h-1.1l2.7-6.12h1.1l2.7,6.12h-1.1l-.61-1.39Zm2.65-1-1.11-2.52-1.11,2.52Z" transform="translate(-0.3 -0.32)" style="fill:#a8b9c0"/><path d="M59.76,53.61V47.49h1v5.14h2.79v1Z" transform="translate(-0.3 -0.32)" style="fill:#a8b9c0"/><path d="M24.24,35.07H21V16h5l5.77,12,5.77-12h5V35.07H39.37V20.14L32.69,33.4h-1.8L24.24,20.14Z" transform="translate(-0.3 -0.32)" style="fill:#a8b9c0"/></svg>